<?xml version="1.0" encoding="UTF-8" standalone="no"?>
<!-- Created with Inkscape (http://www.inkscape.org/) -->

<svg
   version="1.1"
   id="svg2"
   width="512"
   height="512"
   viewBox="0 0 512 512"
   sodipodi:docname="AggieCommute.svg"
   inkscape:version="1.2.2 (b0a8486541, 2022-12-01)"
   xmlns:inkscape="http://www.inkscape.org/namespaces/inkscape"
   xmlns:sodipodi="http://sodipodi.sourceforge.net/DTD/sodipodi-0.dtd"
   xmlns="http://www.w3.org/2000/svg"
   xmlns:svg="http://www.w3.org/2000/svg">
  <defs
     id="defs6" />
  <sodipodi:namedview
     id="namedview4"
     pagecolor="#ffffff"
     bordercolor="#666666"
     borderopacity="1.0"
     inkscape:showpageshadow="2"
     inkscape:pageopacity="0.0"
     inkscape:pagecheckerboard="true"
     inkscape:deskcolor="#d1d1d1"
     showgrid="false"
     inkscape:zoom="2.5595672"
     inkscape:cx="278.75807"
     inkscape:cy="291.26018"
     inkscape:window-width="1920"
     inkscape:window-height="995"
     inkscape:window-x="0"
     inkscape:window-y="0"
     inkscape:window-maximized="1"
     inkscape:current-layer="g12">
    <inkscape:page
       x="0"
       y="0"
       id="page8"
       width="512"
       height="512"
       inkscape:export-filename="Logo_64x64.png"
       inkscape:export-xdpi="12"
       inkscape:export-ydpi="12" />
  </sodipodi:namedview>
  <g
     id="g10"
     inkscape:groupmode="layer"
     inkscape:label="Page 1"
     transform="matrix(1.3333333,0,0,-1.3333333,0,640.73333)">
    <g
       id="g12"
       transform="matrix(0.0782923,0,0,0.0782923,33.61641,74.107535)">
      <path
         d="m 3301.7534,749.551 c 415.09,0 811.26,-2.981 1173.86,-8.36 v -213.75 c -362.6,-5.378 -758.77,-8.339 -1173.86,-8.339 -1732.13,0 -3136.30881,51.589 -3136.30881,115.218 0,63.629 1404.17881,115.231 3136.30881,115.231"
         style="fill:#2e2825;fill-opacity:1;fill-rule:evenodd;stroke:none"
         id="path64" />
      <path
         d="m 4475.6134,4638.14 h -3213.04 c -437.78081,0 -792.67981,-354.89 -792.67981,-792.68 V 1375.07 l 257.813,-257.8 H 4475.6134 v 3520.87"
         style="fill:#4f0030;fill-opacity:1;fill-rule:evenodd;stroke:none"
         id="path66" />
      <path
         d="M 469.89359,2093.14 H 4475.6234 v 454.03 H 469.89359 v -454.03"
         style="fill:#ffe5f6;fill-opacity:1;fill-rule:evenodd;stroke:none"
         id="path68" />
      <path
         d="m 535.08159,4160.63 c -49.605,-82.18 -79.613,-197.74 -79.613,-309.75 V 2184.49 l 14.425,-197.93 c 141.719,97.05 234.719,260.04 234.719,444.77 V 2743 3631.89 c -1.39,191.3 -61.617,375.39 -169.531,528.74"
         style="fill:#cfc1c8;fill-opacity:1;fill-rule:evenodd;stroke:none"
         id="path70" />
      <path
         d="m 2747.4834,1117.27 h 1409.15 c 4.78,33.29 7.3,67.31 7.3,101.93 0,393.16 -318.72,711.88 -711.88,711.88 -393.15,0 -711.88,-318.72 -711.88,-711.88 0,-34.62 2.53,-68.64 7.31,-101.93"
         style="fill:#6a6b6a;fill-opacity:1;fill-rule:evenodd;stroke:none"
         id="path72" />
      <path
         d="m 469.89359,1654.05 h 334.774 c 55.027,0 100.051,-45.02 100.051,-100.05 v -427.11 c 0,-55.04 -45.024,-100.06 -100.051,-100.06 h -334.774 c -55.027,0 -100.05,45.02 -100.05,100.06 V 1554 c 0,55.03 45.023,100.05 100.05,100.05"
         style="fill:#2e2825;fill-opacity:1;fill-rule:evenodd;stroke:none"
         id="path74" />
      <path
         d="m 1271.1934,4201.39 h 1083.29 c 159.23,0 289.49,-130.27 289.49,-289.5 V 1629.95 c 0,-159.23 -130.26,-289.52 -289.49,-289.52 h -1083.29 c -159.24,0 -289.50981,130.29 -289.50981,289.52 v 2281.94 c 0,159.23 130.26981,289.5 289.50981,289.5"
         style="fill:#cfc0c7;fill-opacity:1;fill-rule:evenodd;stroke:none"
         id="path76" />
      <path
         d="m 2536.2634,3702.01 v -783 c 0,-99.97 -81.81,-181.77 -181.78,-181.77 h -1083.29 c -99.98,0 -181.79,81.79 -181.79,181.77 v 783 z m -1265.07,391.65 h 1083.29 c 99.98,0 181.78,-81.8 181.78,-181.77 V 3771.8 h -1446.86 v 140.09 c 0,99.98 81.8,181.77 181.79,181.77 v 0"
         style="fill:#ffebf4;fill-opacity:1;fill-rule:evenodd;stroke:none"
         id="path78" />
      <path
         d="m 2198.1334,3263.8 h -445.47 c -61.1,0 -111.09,-50 -111.09,-111.1 v -0.01 c 0,-61.11 49.99,-111.1 111.09,-111.1 h 445.47 v 222.21"
         style="fill:#4f0030;fill-opacity:1;fill-rule:evenodd;stroke:none"
         id="path80" />
      <path
         d="m 2643.9734,1703.05 v -73.1 c 0,-159.23 -130.26,-289.52 -289.49,-289.52 h -1083.29 c -159.24,0 -289.50981,130.29 -289.50981,289.52 v 73.1 H 2643.9734"
         style="fill:#2e2825;fill-opacity:1;fill-rule:evenodd;stroke:none"
         id="path82" />
      <path
         d="m 3452.0534,634.32 c 322.15,0 584.89,262.739 584.89,584.88 0,322.17 -262.74,584.91 -584.89,584.91 -322.14,0 -584.88,-262.74 -584.88,-584.91 0,-322.141 262.74,-584.88 584.88,-584.88"
         style="fill:#2e2825;fill-opacity:1;fill-rule:evenodd;stroke:none"
         id="path84" />
      <path
         d="m 2219.6834,3288.41 v 0 c 132.53,0 231.44,-108.44 219.8,-240.98 l -0.77,-8.64 c -11.64,-132.53 -129.6,-240.97 -262.13,-240.97 v 0 c -132.54,0 -231.44,108.44 -219.81,240.97 l 0.76,8.64 c 11.64,132.54 129.61,240.98 262.15,240.98"
         style="fill:#ffffff;fill-opacity:1;fill-rule:evenodd;stroke:none"
         id="path86" />
      <path
         d="m 2435.9034,2988.37 3.58,59.06 c 4.23,69.86 62.72,124.02 132.7,122.86 26.63,-0.44 51.31,-8.83 71.79,-22.9 v -990.3 h -831.13 v 230.87 l 434.57,137.07 188.49,463.34"
         style="fill:#373737;fill-opacity:1;fill-rule:evenodd;stroke:none"
         id="path88" />
      <path
         d="m 2248.5134,3280.81 v 0 c 117.19,0 204.66,-95.88 194.36,-213.08 l -29.86,-339.91 c -10.3,-117.19 -114.61,-213.09 -231.8,-213.09 v 0 c -117.21,0 -204.66,95.9 -194.37,213.09 l 29.87,339.91 c 10.29,117.2 114.61,213.08 231.8,213.08"
         style="fill:#4f0030;fill-opacity:1;fill-rule:evenodd;stroke:none"
         id="path90" />
      <path
         d="m 1624.2634,4513.04 h 2851.35 v 292.45 h -2851.35 v -292.45"
         style="fill:#ffe4f5;fill-opacity:1;fill-rule:evenodd;stroke:none"
         id="path92" />
      <path
         d="m 1599.5734,2662.26 h 570.3 c 91.12,0 165.68,-74.55 165.68,-165.67 v 0 c 0,-91.11 -74.56,-165.66 -165.68,-165.66 h -570.3 c -91.11,0 -165.67,74.55 -165.67,165.66 v 0 c 0,91.12 74.56,165.67 165.67,165.67"
         style="fill:#2e2825;fill-opacity:1;fill-rule:evenodd;stroke:none"
         id="path94" />
      <path
         d="m 1677.6134,1902.96 -229.73,522.01 c -36.71,83.4 1.49,181.65 84.89,218.35 v 0 c 83.41,36.7 181.66,-1.5 218.36,-84.9 l 229.73,-522 c 36.7,-83.4 -1.51,-181.65 -84.9,-218.35 v 0 c -83.4,-36.71 -181.65,1.5 -218.35,84.89"
         style="fill:#2e2825;fill-opacity:1;fill-rule:evenodd;stroke:none"
         id="path96" />
      <path
         d="m 3452.0534,845.961 c 205.59,0 373.26,167.659 373.26,373.239 0,205.61 -167.67,373.27 -373.26,373.27 -205.58,0 -373.25,-167.66 -373.25,-373.27 0,-205.58 167.67,-373.239 373.25,-373.239"
         style="fill:#b2a29e;fill-opacity:1;fill-rule:evenodd;stroke:none"
         id="path98" />
      <path
         d="m 3452.0534,1005.91 c 117.49,0 213.31,95.82 213.31,213.29 0,117.49 -95.82,213.32 -213.31,213.32 -117.48,0 -213.3,-95.83 -213.3,-213.32 0,-117.47 95.82,-213.29 213.3,-213.29"
         style="fill:#d7c9c4;fill-opacity:1;fill-rule:evenodd;stroke:none"
         id="path100" />
      <path
         d="m 1910.1134,1957.31 c 62.96,-39.99 70.44,-140.97 16.71,-225.6 -53.74,-84.6 -148.31,-120.77 -211.26,-80.79 -62.95,39.96 -70.45,140.97 -16.71,225.57 53.71,84.6 148.31,120.77 211.26,80.82"
         style="fill:#2e2825;fill-opacity:1;fill-rule:evenodd;stroke:none"
         id="path102" />
      <path
         d="m 2046.6034,1666.53 h 100.04 v 490.56 h -100.04 v -490.56"
         style="fill:#383838;fill-opacity:1;fill-rule:evenodd;stroke:none"
         id="path104" />
      <path
         d="m 2543.9334,1666.53 h 100.04 v 490.56 h -100.04 v -490.56"
         style="fill:#2e2825;fill-opacity:1;fill-rule:evenodd;stroke:none"
         id="path106" />
      <path
         d="m 981.68359,2984.41 168.35981,-86.63 c 78.73,-40.52 134.03,-115.47 149.5,-202.65 15.48,-87.21 -10.64,-176.62 -70.63,-241.76 l -50.01,-48.09 v -581.03 c 0,-59.82 43.03,-110.98 101.97,-121.2 l -115.44,-111.6 h -5.78 l -177.96981,111.6 v 1281.36"
         style="fill:#2e2825;fill-opacity:1;fill-rule:evenodd;stroke:none"
         id="path108" />
      <path
         d="m 1520.2634,1902.96 229.72,522.01 c 36.7,83.4 -1.5,181.65 -84.9,218.35 v 0 c -83.4,36.7 -181.65,-1.5 -218.35,-84.9 l -229.73,-522 c -36.7,-83.4 1.49,-181.65 84.9,-218.35 v 0 c 83.4,-36.71 181.65,1.5 218.36,84.89"
         style="fill:#2e2825;fill-opacity:1;fill-rule:evenodd;stroke:none"
         id="path110" />
      <path
         d="m 1395.8134,1882.75 c 32.32,-67.21 -14.72,-156.9 -105.03,-200.35 -90.33,-43.4 -189.74,-24.14 -222.06,43.07 -32.31,67.22 14.71,156.9 105.03,200.31 90.33,43.45 189.74,24.15 222.06,-43.03"
         style="fill:#2e2825;fill-opacity:1;fill-rule:evenodd;stroke:none"
         id="path112" />
      <path
         d="m 1454.5734,2944.15 37.88,-39.91 -453.7,-430.52 -37.8828,39.93 453.7028,430.5"
         style="fill:#2e2825;fill-opacity:1;fill-rule:evenodd;stroke:none"
         id="path114" />
      <path
         d="m 1357.6534,3137.06 322.35,-339.72 c 13.51,-14.26 12.91,-36.93 -1.32,-50.45 v 0 c -14.24,-13.51 -36.94,-12.91 -50.45,1.32 l -322.37,339.73 c -13.5,14.23 -12.9,36.93 1.33,50.44 v 0.01 c 14.25,13.5 36.94,12.91 50.46,-1.33"
         style="fill:#2e2825;fill-opacity:1;fill-rule:evenodd;stroke:none"
         id="path116" />
      <path
         d="m 1681.0134,2638.16 c 72.62,0 131.83,59.2 131.83,131.82 0,72.61 -59.21,131.8 -131.83,131.8 -72.6,0 -131.81,-59.19 -131.81,-131.8 0,-72.62 59.21,-131.82 131.81,-131.82"
         style="fill:#e08f64;fill-opacity:1;fill-rule:evenodd;stroke:none"
         id="path118" />
      <path
         d="m 1681.0134,2901.78 h 382.32 c 52.43,0 95.35,-42.9 95.35,-95.34 v 0 c 0,-52.44 -42.92,-95.35 -95.35,-95.35 h -382.32 v 190.69"
         style="fill:#e08f64;fill-opacity:1;fill-rule:evenodd;stroke:none"
         id="path120" />
      <path
         d="m 1376.2834,2984.41 c 72.6,0 131.82,59.21 131.82,131.82 0,72.6 -59.22,131.81 -131.82,131.81 -72.6,0 -131.81,-59.21 -131.81,-131.81 0,-72.61 59.21,-131.82 131.81,-131.82"
         style="fill:#e08f64;fill-opacity:1;fill-rule:evenodd;stroke:none"
         id="path122" />
      <path
         d="m 1376.2834,3248.04 h 382.31 c 52.44,0 95.34,-42.9 95.34,-95.34 v 0 c 0,-52.45 -42.9,-95.35 -95.34,-95.35 h -382.31 v 190.69"
         style="fill:#e08f64;fill-opacity:1;fill-rule:evenodd;stroke:none"
         id="path124" />
      <path
         d="m 2095.6734,3389.47 139.96,38.35 31.29,-160.81 -139.97,-38.35 -31.28,160.81"
         style="fill:#e08f64;fill-opacity:1;fill-rule:evenodd;stroke:none"
         id="path126" />
      <path
         d="m 2275.1034,3574.88 -242.08,9.04 -31.72,-170.54 c -12.3,-66.21 32.09,-122.4 98.65,-124.89 v 0 c 66.59,-2.49 131.12,49.65 143.43,115.85 l 31.72,170.54"
         style="fill:#e08f64;fill-opacity:1;fill-rule:evenodd;stroke:none"
         id="path128" />
      <path
         d="m 2022.6734,3528.27 -9.72,68.93 c -3.66,25.86 8.94,51.3 31.72,64.08 22.77,12.76 51.05,10.25 71.2,-6.36 l 112.54,-7.69 c 20.43,-1.4 38.39,-13.99 46.69,-32.71 l 11.03,-5.77 c 11.24,-5.87 19.63,-16.03 23.26,-28.17 3.62,-12.14 2.17,-25.23 -4,-36.29 l -54.11,-196.88 -53.15,80.41 h -60.96 l 22.96,103 -90.44,-4.81 c -17.99,-0.95 -31.02,3.81 -44.51,15.77 l -2.51,-13.51"
         style="fill:#2e2825;fill-opacity:1;fill-rule:evenodd;stroke:none"
         id="path130" />
      <path
         d="m 2221.7434,3487.92 c 16.93,-5.86 22.66,-33.79 12.77,-62.38 -9.9,-28.58 -31.64,-47 -48.59,-41.14 -16.95,5.86 -22.66,33.79 -12.78,62.37 9.89,28.59 31.64,47.01 48.6,41.15"
         style="fill:#e08f64;fill-opacity:1;fill-rule:evenodd;stroke:none"
         id="path132" />
      <path
         d="m 4314.0034,3778.63 v -845.19 c 0,-107.91 -88.29,-196.2 -196.2,-196.2 h -1169.33 c -107.91,0 -196.22,88.29 -196.22,196.2 v 845.19 z m -1365.53,422.76 h 1169.33 c 107.91,0 196.2,-88.3 196.2,-196.22 v -151.21 h -1561.75 v 151.21 c 0,107.92 88.3,196.22 196.22,196.22 v 0"
         style="fill:#cfc1c7;fill-opacity:1;fill-rule:evenodd;stroke:none"
         id="path134" />
      <path
         d="m 4284.7734,2830.74 h -874.87 c -94.13,0 -171.15,77.01 -171.15,171.15 v 737.23 h 1075.25 v -805.68 c 0,-37.58 -10.7,-72.76 -29.23,-102.7 z m 0,1277.14 c 18.53,-29.92 29.23,-65.12 29.23,-102.71 v -151.21 h -1075.25 v 82.77 c 0,94.13 77.02,171.15 171.15,171.15 h 874.87 v 0"
         style="fill:#ffebf4;fill-opacity:1;fill-rule:evenodd;stroke:none"
         id="path136" />
      <path
         d="m 704.61259,4366.12 c 20.078,0 36.364,-16.29 36.364,-36.37 0,-20.07 -16.286,-36.36 -36.364,-36.36 h -308.301 c -67.535,0 -128.671,-27.37 -172.921,-71.61 -44.336,-44.33 -71.766,-105.49 -71.766,-172.93 h 0.144 v -161.61 c 0,-20.08 -16.285,-36.36 -36.355,-36.36 -20.0781,0 -36.3633,16.28 -36.3633,36.36 v 161.61 h 0.1406 c 0,87.7 35.4647,167.01 92.7887,224.33 57.414,57.42 136.731,92.94 224.332,92.94 h 308.301"
         style="fill:#4f0030;fill-opacity:1;fill-rule:evenodd;stroke:none"
         id="path138" />
      <path
         d="m 100.24169,4038.27 h 92.5779 v -529.88 h -92.5779 c -50.9179,0 -92.578101,41.66 -92.578101,92.58 v 344.71 c 0,50.93 41.660201,92.59 92.578101,92.59"
         style="fill:#4f0030;fill-opacity:1;fill-rule:evenodd;stroke:none"
         id="path140" />
      <path
         d="m 482.49159,1949.01 h 160.953 c 61.961,0 112.649,-50.68 112.649,-112.63 v 0 c 0,-61.98 -50.688,-112.66 -112.649,-112.66 h -160.953 c -61.957,0 -112.648,50.68 -112.648,112.66 v 0 c 0,61.95 50.691,112.63 112.648,112.63"
         style="fill:#ffe5f6;fill-opacity:1;fill-rule:evenodd;stroke:none"
         id="path142" />
    </g>
  </g>
</svg>
